<svg width="146" height="200" viewBox="0 0 146 200" fill="none" xmlns="http://www.w3.org/2000/svg">
<path d="M73.0055 0C33.066 0 0.572998 32.493 0.572998 72.4321C0.572998 121.998 65.393 194.763 68.1528 197.837C70.745 200.724 75.2707 200.719 77.8583 197.837C80.618 194.763 145.438 121.998 145.438 72.4321C145.437 32.493 112.945 0 73.0055 0ZM73.0055 108.875C52.911 108.875 36.5633 92.5267 36.5633 72.4321C36.5633 52.3376 52.9113 35.9899 73.0055 35.9899C93.0997 35.9899 109.447 52.338 109.447 72.4325C109.447 92.5271 93.0997 108.875 73.0055 108.875Z" fill="#BDBDD1"/>
</svg>
