<svg
	xmlns="http://www.w3.org/2000/svg"
	xmlns:xlink="http://www.w3.org/1999/xlink" viewBox="0 0 2422.59 2294.21">
	<defs>
		<clipPath id="clip-path" transform="translate(65.99)">
			<circle fill="none" cx="1094.62" cy="1133.13" r="1075.01"/>
		</clipPath>
		<clipPath id="clip-path-2" transform="translate(65.99)">
			<path fill="none" d="M2169.63,1133.13c0,593.71-481.3,1075-1075,1075s-1075-481.3-1075-1075"/>
		</clipPath>
		<clipPath id="clip-path-4" transform="translate(65.99)">
			<path fill="none" d="M876.37,758.05s4.69,58.58,0,79.68l23.32,31.16,28.24-31.16s-11.4-23.44-20.78-79.68Z"/>
		</clipPath>
		<clipPath id="clip-path-5" transform="translate(65.99)">
			<polygon fill="none" points="1276.64 684.13 1234.5 684.13 1224.5 777.82 1286.64 777.82 1276.64 684.13"/>
		</clipPath>
		<clipPath id="clip-path-6" transform="translate(65.99)">
			<path fill="none" d="M1156.58,1113.75s4.7,208.41,10.72,281.33S1182.87,1753,1182.87,1753h71.45l13.25-495.25L1309.39,1753h65.93l-7.69-643.27Z"/>
		</clipPath>
		<clipPath id="clip-path-7" transform="translate(65.99)">
			<polygon fill="none" points="1385.33 788.82 1312.35 753.18 1259.97 851.7 1206.6 747.18 1133.62 787.82 1141.21 858.41 1161.62 983.24 1137.03 1154.95 1259.97 1132.24 1382.92 1154.95 1358.33 983.24 1378.74 858.41 1385.33 788.82"/>
		</clipPath>
		<clipPath id="clip-path-8" transform="translate(65.99)">
			<path fill="none" d="M1112.61,948.11s66-117.76,65.93-135-26.74-34.43-39.79-27.37-19.23,11.94-19.23,11.94l-86.9,178.9s-11.64,31.52-7.46,36.57,27.47,25.28,46.63,7.78c6-5.45,30.64-54.4,40.82-72.84"/>
		</clipPath>
		<clipPath id="clip-path-9" transform="translate(65.99)">
			<path fill="none" d="M1236.49,1769.31l-1.37-9.3-33.39,1.1s-14.12,38.77-41.75,60.81c-35.78-3.56-49.21,14-49.21,14s35.82,18.49,85.46-1.6c0,0,14.89-6,22.83-4.83l.31,9.33,24.4-.8S1255.63,1805.32,1236.49,1769.31Z"/>
		</clipPath>
		<clipPath id="clip-path-10" transform="translate(65.99)">
			<path fill="none" d="M1322.43,1769.31l1.37-9.3,33.39,1.1s14.12,38.77,41.74,60.81c35.78-3.56,49.21,14,49.21,14s-35.81,18.49-85.45-1.6c0,0-14.89-6-22.84-4.83l-.3,9.33-24.41-.8S1303.28,1805.32,1322.43,1769.31Z"/>
		</clipPath>
	</defs>
	<g id="Layer_2" data-name="Layer 2">
		<g id="Layer_206" data-name="Layer 206">
			<circle fill="f2f4f7" cx="1160.61" cy="1133.13" r="1075.01"/>
			<g clip-path="url(#clip-path)">
				<polygon fill="eff1f4" points="98.02 647.26 2326.89 616.17 2359.37 1143.56 42.2 1143.56 98.02 647.26"/>
				<polygon fill="eaecef" points="25.39 753.7 2348.79 859.8 2359.37 1143.56 42.2 1143.56 25.39 753.7"/>
				<polygon fill="e2e4e8" points="65.99 1015.8 2359.37 901.19 2359.37 1143.56 42.2 1143.56 65.99 1015.8"/>
				<path fill="fff" d="M1795.22,277.61S1704.55,220.44,1629,231.1s-66-124.73-165.32-118.28-107.29,126.79-151.65,107.45-99.43-58.93-138.51-25.17-30.91,68.47-84.43,55.41-113.69,27.1-113.69,27.1Z" transform="translate(65.99)"/>
				<path fill="fff" opacity="0.54" d="M1536.8,718.41s90.68-57.17,166.2-46.51,66-124.72,165.32-118.27S1975.61,680.42,2020,661.07s99.43-58.92,138.51-25.16,30.91,68.47,84.42,55.41,113.7,27.09,113.7,27.09Z" transform="translate(65.99)"/>
				<path fill="fff" d="M-15.28,485s90.67-57.17,166.19-46.51,66-124.73,165.32-118.28S423.52,447,467.89,427.64s99.42-58.93,138.51-25.17,30.9,68.47,84.42,55.41S804.51,485,804.51,485Z" transform="translate(65.99)"/>
			</g>
			<circle fill="none" cx="1160.61" cy="1133.13" r="1075.01"/>
			<path fill="9292b7" d="M2169.63,1133.13c0,593.71-481.3,1075-1075,1075s-1075-481.3-1075-1075" transform="translate(65.99)"/>
			<g clip-path="url(#clip-path-2)">
				<polygon fill="8989ad" points="619.07 2156.34 2298.22 2138.35 2197.46 1725.95 187.24 1689.92 619.07 2156.34"/>
				<polygon fill="8c8caf" points="619.07 2156.34 2298.22 2138.35 2187.08 1838.84 380.14 1898.27 619.07 2156.34"/>
				<polygon fill="8a8aaa" points="619.07 2156.34 2298.22 2138.35 2202.39 1992.49 422.13 1943.62 619.07 2156.34"/>
				<polygon fill="8686a8" points="619.07 2156.34 2298.22 2138.35 2202.39 1992.49 557.63 2089.97 619.07 2156.34"/>
				<path fill="7f7fa5" d="M599.63,2144.35c6.06-2,1418.79-14.89,1418.79-14.89l-545.61,156.76s-675.29,18-703.26,0S599.63,2144.35,599.63,2144.35Z" transform="translate(65.99)"/>
			</g>
			<path fill="none" d="M2169.63,1133.13c0,593.71-481.3,1075-1075,1075s-1075-481.3-1075-1075" transform="translate(65.99)"/>
			<g clip-path="url(#clip-path)">
				<rect fill="5e6f96" x="51.85" y="1133.48" width="2344.18" height="517.86"/>
				<rect fill="354b66" x="51.85" y="1133.48" width="2344.18" height="517.86"/>
				<polygon fill="415675" points="2396.03 1651.35 51.85 1651.35 8.29 1159.94 2396.03 1196.21 2396.03 1651.35"/>
				<polygon fill="495e7f" points="2396.03 1651.35 51.85 1651.35 0 1206.09 2396.03 1221.18 2396.03 1651.35"/>
				<polygon fill="54678c" points="2396.03 1651.35 51.85 1651.35 12.41 1312.66 2396.03 1234.17 2396.03 1651.35"/>
				<polygon fill="627499" points="2396.03 1651.35 51.85 1651.35 20.28 1380.21 2396.03 1335.54 2396.03 1651.35"/>
				<polygon fill="687ca0" points="2396.03 1651.35 51.85 1651.35 20.28 1438.06 2396.03 1492.05 2396.03 1651.35"/>
				<path fill="677691" d="M491.63,1932.17c2.08-.09,24.83-11.11,63-2.68s23.91,10.72,68.23-2.9,58.46,3.83,90.33,4.34,33-17.41,81.63-6.6,64.51,14.42,92.71,8.2" transform="translate(65.99)"/>
				<path fill="677691" opacity="0.46" d="M1356.57,2090.89c38.18,8.43,25.78-5.47,72.08-7.87,42.61-2.2,54.61,8.79,86.47,9.31s15.34-16.48,63.9-5.69,72.25,13.51,100.44,7.28" transform="translate(65.99)"/>
				<path fill="677691" d="M1634.12,1941.91c-1.74-.07-20.86-7.13-52.71-2.24s-19.89,6.44-57.06-2.42-48.85,1.84-75.48,1.87-30.93-17.15-71.44-10.89-42.31,14.5-65.94,10.38" transform="translate(65.99)"/>
				<path fill="677691" opacity="0.58" d="M985.67,2110.38c-2.08-.09-24.83-11.12-63-2.68s-15.89,3.82-68.23-2.9c-46-5.91-58.46,3.82-90.33,4.34-39.65.65-53.25-15.1-96.44-5.51-48.57,10.78-39.7,13.33-67.9,7.1" transform="translate(65.99)"/>
				<path fill="677691" opacity="0.58" d="M1305.67,2023.38c-2.08-.09-24.83-11.12-63-2.68s-23.91,10.71-68.23-2.9-58.46,3.82-90.33,4.34c-39.65.65-42.08-25.87-85.27-16.28-48.57,10.79-50.87,24.1-79.07,17.87" transform="translate(65.99)"/>
				<path fill="677691" opacity="0.36" d="M700.06,2022.63c-2.08-.09-24.83-11.11-63-2.68s-23.91,10.71-68.23-2.9-58.46,3.82-90.33,4.34-36.7-27.06-85.27-16.27-50.87,24.09-79.07,17.86" transform="translate(65.99)"/>
				<path fill="677691" opacity="0.36" d="M1884,2012.63c-2.08-.09-24.83-11.11-63-2.68s-23.91,10.71-68.23-2.9-58.46,3.82-90.32,4.34-32.73-10.87-70.07-10.34c-49.74.72-66.08,18.16-94.27,11.93" transform="translate(65.99)"/>
			</g>
			<path fill="fff" opacity="0.37" d="M1094.34,729.77s-90.67-57.17-166.19-46.51S862.13,558.53,762.82,565,655.53,691.77,611.17,672.43s-99.42-58.93-138.51-25.17-30.9,68.47-84.42,55.42-113.69,27.09-113.69,27.09Z" transform="translate(65.99)"/>
			<path fill="8793b2" d="M1683.66,96.55s50.44,4.14,71,27.64c0,0,10.91-7.6,38.74-.69,0,0-40.28,4-44.14,17.85C1749.28,141.35,1728.88,106.22,1683.66,96.55Z" transform="translate(65.99)"/>
			<path fill="87fill="8793b2" opacity="0.46"93b2" d="M634.09,287.63s-42.06-2-61.55,15.23c0,0-8.2-7.43-31.9-4.7,0,0,32.81,7.63,34.52,19.44C575.16,317.6,595.75,290.79,634.09,287.63Z" transform="translate(65.99)"/>
			<path fill="87fill="8793b2" opacity="0.46"93b2" d="M370.77,201.67S355.92,201,349,207.05c0,0-2.89-2.63-11.25-1.66,0,0,11.58,2.69,12.18,6.86A30.9,30.9,0,0,1,370.77,201.67Z" transform="translate(65.99)"/>
			<path fill="8793b2" opacity="0.47" d="M1442.51,0s19.32,1.59,27.21,10.59c0,0,4.18-2.91,14.84-.27,0,0-15.44,1.55-16.91,6.85A40.29,40.29,0,0,0,1442.51,0Z" transform="translate(65.99)"/>
			<path fill="8793b2" opacity="0.35" d="M1608.08,401.84s19.16,3,28.93-3.94c0,0,3.38,3.8,14.36,3.72,0,0-14.64-5.11-14.84-10.6A40.29,40.29,0,0,1,1608.08,401.84Z" transform="translate(65.99)"/>
			<path fill="fff" d="M1471.26,1346.94h316.93s-9.19-11.6-33.22-9.19-9.65,2.67-44.89-1.59-26.69,14.88-63,7.38-40.46.11-92-4.78C1521.18,1335.54,1471.26,1346.94,1471.26,1346.94Z" transform="translate(65.99)"/>
			<path fill="fff" opacity="0.35" d="M1289.67,1265.8h316.94s-6.25-6.73-30.29-4-12.59-3.21-47.82-7.94-26.7,16.55-63,8.2-35.77-13.49-68.34-8.9C1363.32,1257.88,1289.67,1265.8,1289.67,1265.8Z" transform="translate(65.99)"/>
			<path fill="fff" d="M394.61,1388.4H711.55s-9.19-12.91-33.23-10.23-9.65,3-44.88-1.76-26.7,16.55-63,8.2-31.79-7.15-64.36-2.56C472.24,1386.82,394.61,1388.4,394.61,1388.4Z" transform="translate(65.99)"/>
			<path fill="fff" d="M890.74,1652h557.4s-16.16-33.08-58.43-26.2-17,7.6-78.94-4.52-47,42.41-110.82,21-55.92-18.32-113.19-6.55C1027.26,1648,890.74,1652,890.74,1652Z" transform="translate(65.99)"/>
			<path fill="fff" d="M1278.55,1652h557.39s-16.16-22.71-58.43-18-17,5.21-78.94-3.11-47,29.11-110.82,14.43-55.91-12.57-113.19-4.49C1415.06,1649.24,1278.55,1652,1278.55,1652Z" transform="translate(65.99)"/>
			<path fill="fff" opacity="0.44" d="M77.68,1282.38H394.61s-9.19-12.91-33.22-10.23-9.65,3-44.89-1.76-26.69,16.55-63,8.2-31.79-7.15-64.36-2.56C155.3,1280.8,77.68,1282.38,77.68,1282.38Z" transform="translate(65.99)"/>
			<path fill="fff" d="M952.31,1522.59h316.93s-9.19-12.91-33.22-10.22-9.65,3-44.89-1.77-26.69,16.55-63,8.21-31.79-7.15-64.36-2.56C1029.93,1521,952.31,1522.59,952.31,1522.59Z" transform="translate(65.99)"/>
			<path fill="fff" opacity="0.66" d="M223.3,1206.09H540.23s-9.19-10.06-33.22-8-9.65,2.31-44.89-1.37-26.69,12.89-63,6.39-31.79-5.57-64.36-2C300.93,1204.86,223.3,1206.09,223.3,1206.09Z" transform="translate(65.99)"/>
			<path fill="fff" opacity="0.66" d="M1819.13,1244.05h316.94s5.15,0-25.07-3c-24-2.4-17.81-2.63-53-6.31s-26.7,12.89-63,6.39-31.79-5.57-64.36-2C1896.76,1242.82,1819.13,1244.05,1819.13,1244.05Z" transform="translate(65.99)"/>
			<path fill="fff" opacity="0.44" d="M818,1290.56h316.93s-9.29-11.94-33.23-8.77c-22.84,3-.29,9.48-44.88,1.49-34.91-6.26-26.69,11.19-63,4s-31.8-6.13-64.36-2.19C895.61,1289.21,818,1290.56,818,1290.56Z" transform="translate(65.99)"/>
			<path fill="677691" d="M1946.7,1126.66s43.41-57.82,91.6-23.55,93.16,52.94,93.16,52.94l-171.3,3.08Z" transform="translate(65.99)"/>
			<path fill="677691" d="M944.82,1135.07l-886.48-.36c8.57-5.38,136.87,22.27,171.14-73.38,45.07-125.79,105-209.43,165.13-143.92,90.12,98.23,106.23,210.44,155.54,147s112.36-26.38,137.1,0c0,0,66.11,70.66,257.57,70.66" transform="translate(65.99)"/>
			<path fill="677691" d="M1586.65,1035c97.6-90.82,151.89-75.42,219.81,2.55,69.53,79.82,162.57,100.24,171.14,105.62l-800.59.35-37.49-18.35s124.51-69,203.58-87.68c0,0,53.6-19.59,124.21,15.46S1586.65,1035,1586.65,1035Z" transform="translate(65.99)"/>
			<path fill="677691" opacity="0.55" d="M2169.21,1133.7l.42-28.39c-32.05-6.81-77.87-52-77.87-52-77.36-65.85-139.2-78.85-250.36-2.15-7.08,4.88-13.36,9.26-19,13.17v69.34Z" transform="translate(65.99)"/>
			<ellipse fill="4d4d66" opacity="0.27" cx="936.05" cy="1829.31" rx="254.63" ry="11.96"/>
			<ellipse fill="4d4d66" opacity="0.27" cx="1348.92" cy="1841.42" rx="201.63" ry="12.71"/>
			<path fill="4d4d66" d="M1337.53,764s-44.6-25.51-46.8-25.9-36.7-7.9-36.7-7.9v44l55.72,42Z" transform="translate(65.99)"/>
			<path fill="4d4d66" d="M1179.19,759.76s37.83-21.29,40-21.68,36.7-7.9,36.7-7.9v44l-52,57.14Z" transform="translate(65.99)"/>
			<path fill="677691" opacity="0.55" d="M19.61,1134.07H1185.5S1012.72,1005,840,1076.39c-80.68,33.35-135.24-.9-223.79,15.87-70.43,13.33-116.76-22.33-266.48-3.35,0,0-107.48-106.83-199.19-86.07-45.85,10.38-75.46,39.19-92.19,62.2s-38.73,32.35-38.73,32.35Z" transform="translate(65.99)"/>
			<path fill="e0e0e9" d="M2059.5,1747.15s119.95,1.4,102.46-107.63-.06-115.69,37.29-134c0,0-114.92-2.06-178.86,56.81S1940.8,1740.12,2059.5,1747.15Z" transform="translate(65.99)"/>
			<path fill="bdbdd1" d="M2205.65,1490s51.44-7,36.22-59.3c0,0-20.57,30.81-70.08,44.85,0,0-42.41,16.08-51.69,28.09C2120.1,1503.61,2156.46,1494.5,2205.65,1490Z" transform="translate(65.99)"/>
			<line fill="none" stroke="fff" stroke-miterlimit="10" stroke-width="5px" x1="2030.13" y1="1855.13" x2="2180.02" y2="1555.74"/>
			<line fill="none" stroke="fff" stroke-miterlimit="10" stroke-width="5px" x1="2169.59" y1="1661.35" x2="2121.73" y2="1668.78"/>
			<path fill="bdbdd1" d="M1840.52,1830.92s-295.7-103.07-209.1-156.41,194.32,93.33,194.32,93.33-209.1-264.81-135.18-288.12,150,125.63,150,194.79c0,0,27.46-133.38,84.49-115.54s-27.46,192.55-27.46,192.55,139.4-150.72,194.31-115.2S1954.57,1795.67,1840.52,1830.92Z" transform="translate(65.99)"/>
			<path fill="6e6e83" d="M1844.13,1546c-1.68-8.37-63.43-89.23-13.7-106.23,43.26-14.78,23.65,69.59,23.65,69.59Z" transform="translate(65.99)"/>
			<path fill="bdbdd1" d="M1968.28,1636.32s-2.63-46.67,19-54.56,18.46,19,18.46,19S2006,1625.12,1968.28,1636.32Z" transform="translate(65.99)"/>
			<path fill="bdbdd1" d="M1681.17,1633s1.94-23.34-14.08-27.28-13.65,9.48-13.65,9.48S1653.32,1627.44,1681.17,1633Z" transform="translate(65.99)"/>
			<path fill="bdbdd1" d="M1910.48,1821.48c12-3.27,153.52-47.91,182.91-30.49s13.07,51.17-46.81,55.53-197.07-4.36-197.07-4.36Z" transform="translate(65.99)"/>
			<path fill="bdbdd1" d="M1790.8,1828.14c-6-1.63-76.76-24-91.46-15.24s-6.53,25.58,23.41,27.76,98.53-2.18,98.53-2.18Z" transform="translate(65.99)"/>
			<path fill="f1f2f5" d="M1837,1717.92c-6-13.35-44.16-9.83-92.48,6.69,56-38,92.62-78.87,83-93.76-10.19-15.84-68.84,3.71-131,43.68q-3.88,2.51-7.66,5c39.72-51.67,60.69-99.41,47.4-110.4-12-9.88-47.89,13.07-86.48,53.25a466.74,466.74,0,0,0-27.46-59.74c-35.26-65-77.26-110.31-93.82-101.32s-1.4,68.93,33.86,133.87c8.22,15.14,16.81,29.22,25.35,41.79-52.09-48.4-103.49-76.62-116.11-63.33-12.18,12.82,16,59.7,63.85,107.5-35.34-25.79-64.8-37.92-73.94-28.31-9.56,10.07,5.79,41.14,36,77.17-39.74-19.61-71.31-26.63-78.69-15.47-10.4,15.71,31.12,61.51,92.74,102.31,49.45,32.75,96.82,52.31,119,50.63,19.7.92,45.47-1.11,73.24-6.34,58.33-11,103.33-31.94,100.53-46.81-2.11-11.24-31-15.78-70.12-12.58C1798.87,1771.73,1844.57,1734.65,1837,1717.92Z" transform="translate(65.99)"/>
			<ellipse fill="f1f2f5" cx="1689.31" cy="1516.25" rx="49.82" ry="19.17" transform="translate(-441.55 2087.75) rotate(-56.49)"/>
			<ellipse fill="f1f2f5" cx="1795.05" cy="1582.71" rx="20.68" ry="12.6" transform="translate(-531.86 1547.9) rotate(-40.57)"/>
			<path fill="bdbdd1" d="M2040.05,1290a710.85,710.85,0,0,1-13.78,118.2c-35.42,176.81-126.72,307.61-203.92,292.14-48.59-9.73-80-75.08-87.81-166.27-.25-2.95,38.3,25.9,38.09,22.89-.22-3.38-39.2-38.62-39.36-42.07-2.35-49.19,1.82-104.82,13.41-162.7,20.44-102,59.49-188.73,103.69-240.86,1.68-2,36.57,100.66,38.26,98.78,1.4-1.55-30.41-107.62-29-109.09,29.77-31.36,61.41-46.9,91-41,49.25,9.86,80.86,76.85,88.11,170,.15,1.85-50.85,66.89-50.72,68.76.13,2.06,51.39-59,51.51-57q.63,11.57.77,23.61c0,1.64-55.3,71.4-55.29,73.06" transform="translate(65.99)"/>
			<line fill="none" stroke="fff" stroke-miterlimit="10" stroke-width="5px" x1="1857.18" y1="1851.89" x2="1976.17" y2="1257.85"/>
			<line fill="none" stroke="fff" stroke-miterlimit="10" stroke-width="5px" x1="1958.94" y1="1568.46" x2="1903.83" y2="1615.08"/>
			<line fill="none" stroke="fff" stroke-miterlimit="10" stroke-width="5px" x1="1950.82" y1="1384.4" x2="1927.58" y2="1338.76"/>
			<path fill="bdbdd1" d="M281.7,1825.88S-88.54,1696.83,19.89,1630s243.3,116.86,243.3,116.86S1.38,1415.33,93.94,1386.15,281.7,1543.44,281.7,1630c0,0,34.38-167,105.78-144.67s-34.38,241.1-34.38,241.1,174.54-188.73,243.3-144.24S424.5,1781.74,281.7,1825.88Z" transform="translate(65.99)"/>
			<path fill="bdbdd1" d="M286.22,1469.17c-2.1-10.48-79.42-111.72-17.15-133,54.16-18.51,29.61,87.13,29.61,87.13Z" transform="translate(65.99)"/>
			<path fill="6e6e83" d="M441.66,1594.23s-3.29-58.44,23.85-68.31,23.12,23.74,23.12,23.74S488.84,1580.2,441.66,1594.23Z" transform="translate(65.99)"/>
			<path fill="bdbdd1" d="M82.18,1578.12s2.43-29.22-17.63-34.16-17.09,11.87-17.09,11.87S47.31,1571.1,82.18,1578.12Z" transform="translate(65.99)"/>
			<path fill="bdbdd1" d="M369.3,1814.05c15-4.09,192.21-60,229-38.17s16.36,64.07-58.62,69.53S293,1843,293,1843Z" transform="translate(65.99)"/>
			<path fill="bdbdd1" d="M219.44,1822.4c-7.5-2.05-96.11-30-114.51-19.09s-8.18,32,29.31,34.77,123.37-2.73,123.37-2.73Z" transform="translate(65.99)"/>
			<path fill="bdbdd1" d="M644.51,1459.17c-76-16.27-44.32-84.6-20.67-116S671.33,1211,579.1,1185.91s-72.54-66.08-61.68-108.65c7.62-29.9-16.75-88.18-69.91-78.7s-55.89,72.58-38.41,98c24.9,36.2,57.52,67.82-20.35,123.27s-20.69,141.79,12.35,163.06,86.39,74.45,20.67,116-52.93,113.32-52.93,113.32c36.55,123,162.93,93.58,162.93,93.58l40.51-7.16,40.49-7.28s128.76-16,120.56-144.1C733.33,1547.23,720.54,1475.44,644.51,1459.17Z" transform="translate(65.99)"/>
			<line fill="none" stroke="fff" stroke-miterlimit="10" stroke-width="5px" x1="665.62" y1="1852.05" x2="521.87" y2="1045.51"/>
			<line fill="none" stroke="fff" stroke-miterlimit="10" stroke-width="5px" x1="543.38" y1="1595.21" x2="621.53" y2="1614.74"/>
			<line fill="none" stroke="fff" stroke-miterlimit="10" stroke-width="5px" x1="573.09" y1="1332.91" x2="629.71" y2="1274.2"/>
			<line fill="none" stroke="fff" stroke-miterlimit="10" stroke-width="5px" x1="525.76" y1="1077.39" x2="496.04" y2="1060.11"/>
			<path fill="e0e0e9" d="M226.56,1575.42a278.18,278.18,0,0,0,15,72.59c36.79,105.5,126.88,170,201.23,144.1,46.79-16.31,76.2-64.56,82.39-124.39.21-1.94-24.57,25.62-24.42,23.66.17-2.21,25.26-33.94,25.37-36.17,1.55-31.89-3.29-66.54-15.33-101.07-21.22-60.89-60.2-108.12-103.66-132.2-1.65-.92-18.61,41.66-20.27,40.82-1.37-.7,12.56-44.84,11.19-45.49-29.22-13.83-60-17.16-88.48-7.24-47.42,16.54-77,65.87-82.64,126.81-.11,1.21,50.1,32.13,50,33.35s-50.5-27-50.58-25.64q-.43,7.5-.4,15.22c0,1.06,25,18.44,25.05,19.5" transform="translate(65.99)"/>
			<line fill="none" stroke="fff" stroke-miterlimit="10" stroke-width="5px" x1="539.2" y1="1860.48" x2="420.27" y2="1519.36"/>
			<line fill="none" stroke="fff" stroke-miterlimit="10" stroke-width="5px" x1="447.76" y1="1710.22" x2="490.35" y2="1718.03"/>
			<line fill="none" stroke="fff" stroke-miterlimit="10" stroke-width="5px" x1="460.61" y1="1635.05" x2="477.36" y2="1586.65"/>
			<path fill="a6a6bc" d="M958.9,665.07c16.36,46.26,24.41,192.54,24.41,192.54l-88.9-32.55-.89-207.32S942.54,618.81,958.9,665.07Z" transform="translate(65.99)"/>
			<path fill="a6a6bc" d="M981.29,833.09s1.79,24.59,18.89,28.53l-18.89-6.48Z" transform="translate(65.99)"/>
			<path fill="a6a6bc" d="M981.29,821.56s1.79,24.59,18.89,28.53l-18.89-4.36Z" transform="translate(65.99)"/>
			<polygon fill="fff" points="965.68 861.49 943.98 824.76 865.71 859.8 898.26 1002.15 865.71 1153.87 1065.66 1178.52 1030.97 997.68 1061.52 859.57 990.5 829.22 965.68 861.49"/>
			<path fill="fff" d="M799.72,1153.87l32.55-151.72L799.72,859.8l78.26-35,21.71,36.73,24.81-32.27,71.43,30.48-31,138,34.7,180.84s57.89,305.19,67.17,356.54,93,272.37,93,272.37-234.41,77-528,0l93.77-270.14" transform="translate(65.99)"/>
			<path fill="8793b2" opacity="0.14" d="M961.31,980c-15.24,3.39-35.39,4-40.61-19.08-2.62-11.57-31.41-36.68-36.21-19.64-13.36,47.51-24.94,44.84-57.44,38.05l5.22,22.82-6.59,30.71c13.8-12.67,35.14-29.2,55.82-32.92,13.54-2.43,16.12-10.76,16.12-10.76s9.82,18,20.26,21.66c8,2.77,34.38,15.25,55.75,32" transform="translate(65.99)"/>
			<path fill="cdd5e8" d="M799.72,859.8l-1.94.89c-45.25,30.92-148.92,102.91-153.7,115.14-4.12,10.55,3,15,35.06,0S871,891.19,799.72,859.8Z" transform="translate(65.99)"/>
			<path fill="cdd5e8" d="M664.32,959.62S851,976,868,981.05s5.09,14.48-30.16,17.87S572.83,1011.65,664.32,959.62Z" transform="translate(65.99)"/>
			<path fill="cdd5e8" d="M859.24,985.19l36-89S913.63,1020.41,859.24,985.19Z" transform="translate(65.99)"/>
			<path fill="cdd5e8" d="M1130,959.62S943.26,976,926.27,981.05s-5.08,14.48,30.17,17.87S1221.46,1011.65,1130,959.62Z" transform="translate(65.99)"/>
			<path fill="cdd5e8" d="M939.8,984.28,904.68,897.4S888.1,1018.29,939.8,984.28Z" transform="translate(65.99)"/>
			<path fill="a6a6bc" d="M828.25,665.07c-16.37,46.26-24.42,192.54-24.42,192.54l88.9-32.55.9-207.32S844.61,618.81,828.25,665.07Z" transform="translate(65.99)"/>
			<path fill="cdd5e8" d="M876.37,758.05s4.69,58.58,0,79.68l23.32,31.16,28.24-31.16s-11.4-23.44-20.78-79.68Z" transform="translate(65.99)"/>
			<g clip-path="url(#clip-path-4)">
				<path fill="8793b2" opacity="0.37" d="M872.66,807.75s37.82,1.23,51.87-16.18l-16.6-21-35.27,7.83Z" transform="translate(65.99)"/>
			</g>
			<path fill="cdd5e8" d="M894.85,790.08c7.52,0,16.82-8.19,23.41-11.53,21.21-10.77,36.19-37.15,36.19-68,0-40.41-27.85-77.17-59.6-77.17" transform="translate(65.99)"/>
			<path fill="cdd5e8" d="M894.85,790.08c-7.52,0-16.83-8.19-23.41-11.53-21.21-10.77-36.19-37.15-36.19-68,0-40.41,27.85-77.17,59.6-77.17" transform="translate(65.99)"/>
			<path fill="a6a6bc" d="M828.25,697.17s45,2.62,73.81-45.29c0,0,47.81,39.29,49.58,33.83,11.17-34.44-54.28-68.05-76.27-58.35C841.35,642.37,828.25,697.17,828.25,697.17Z" transform="translate(65.99)"/>
			<path fill="none" stroke-miterlimit="10" stroke="6e6e83" stroke-width="2px" d="M879.71,717.36a9.66,9.66,0,0,1-19.32,0" transform="translate(65.99)"/>
			<path fill="none" stroke-miterlimit="10" stroke="6e6e83" stroke-width="2px" d="M923.47,717.36a9.66,9.66,0,0,1-19.32,0" transform="translate(65.99)"/>
			<path fill="ea493d" d="M917.52,634.17c-.5-4.85-7.06-15.76,8.17-17.35s13.89-.78,27.52,8.35,12,22.37,7.12,29.23-16.37,6.22-27.59-1S918.69,645.61,917.52,634.17Z" transform="translate(65.99)"/>
			<path fill="fff" d="M936.22,636s-9.64-7.06,0-8.31,16.35,9.57,13.83,11.07S944.18,644.29,936.22,636Z" transform="translate(65.99)"/>
			<path fill="a6a6bc" d="M805.86,832.93s-1.8,24.59-18.9,28.54l18.9-4.36Z" transform="translate(65.99)"/>
			<path fill="a6a6bc" d="M805.86,821.56s-1.8,24.59-18.9,28.53l18.9-4.36Z" transform="translate(65.99)"/>
			<polygon fill="cdd5e8" points="1342.63 684.13 1300.49 684.13 1290.49 777.82 1352.63 777.82 1342.63 684.13"/>
			<g clip-path="url(#clip-path-5)">
				<path fill="8793b2" opacity="0.37" d="M1226,724.76c3.28-.09,22.56,12.22,35.68,6.21s31.48-26.21,31.48-26.21-12.34-26.94-13.4-26.59-68.41,21.27-68.41,21.27Z" transform="translate(65.99)"/>
			</g>
			<polygon fill="cdd5e8" points="1320.53 787.85 1199.61 787.85 1243.19 982.96 1250.33 1063.6 1317.83 1063.6 1323.74 1063.6 1391.24 1063.6 1441.95 787.85 1321.04 787.85 1320.53 787.85"/>
			<polygon fill="cdd5e8" points="1320.79 787.82 1442.03 787.82 1320.79 754.15 1320.79 753.7 1319.83 753.93 1318.86 753.7 1318.86 754.16 1199.61 787.82 1318.86 787.82 1320.79 787.82"/>
			<path fill="cdd5e8" d="M1255.59,715.34c11.69,0,41.22-28.33,41.22-28.33,17.52-16.72,15.5-53.49,16.5-68.89a58.76,58.76,0,1,0-116.5-10.88c0,1.07,0,2.13.09,3.19l-.09,0s2.55,59.53,16.08,71.84c0,0,30.21,33.09,41.9,33.09Z" transform="translate(65.99)"/>
			<path fill="4d4d66" d="M1319,557.09c-14.79-26.56-59.62-30.48-64.19-30.88v0l-.18,0-.19,0v0c-4.56.4-51.8,9.09-61,37.09,0,0-8.62,24.6,1.43,79.25,0,0,1.93,6.93,4.9,10.06,0,0-.74-16,1.66-28.76,0,0,3.87-34.45,8.38-48.34,0,0,18.46-15.58,44.84-15.57s44.84,15.57,44.84,15.57c5.64,16.66,8.38,48.34,8.38,48.34,2.39,12.78,1.75,28.76,1.75,28.76,5.19-5,5.44-3.19,5.44-3.19C1327.45,595.09,1319,557.09,1319,557.09Z" transform="translate(65.99)"/>
			<path fill="cdd5e8" d="M1193.94,619.94s-4.65-15.66-9.56-9.82-2.06,44.5,15.4,42.49C1199.78,652.61,1207.45,651.59,1193.94,619.94Z" transform="translate(65.99)"/>
			<path fill="cdd5e8" d="M1315.47,619.94s4.66-15.66,9.57-9.82,2.06,44.5-15.41,42.49C1309.63,652.61,1302,651.59,1315.47,619.94Z" transform="translate(65.99)"/>
			<path fill="none" stroke-miterlimit="10" stroke="6e6e83" stroke-width="2px" d="M1243.51,623.11a9.66,9.66,0,0,1-19.32,0" transform="translate(65.99)"/>
			<path fill="none" stroke-miterlimit="10" stroke="6e6e83" stroke-width="2px" d="M1285.27,623.11a9.66,9.66,0,0,1-19.32,0" transform="translate(65.99)"/>
			<path fill="4d4d66" d="M1282,670.66c-3.54-5.71-22.12-9-22.12-9H1252s-18.58,3.3-22.13,9a18.42,18.42,0,0,0,0,4.4s17.37-4.18,26.1-4.4c8.73.22,26.09,4.4,26.09,4.4A18.42,18.42,0,0,0,1282,670.66Z" transform="translate(65.99)"/>
			<path fill="4d4d66" d="M1309.55,630.75s.86,35.51-6.43,46.48c0,0-17.79,15.4-23.47,19.34.8-3.26,1.57-4.42,1.48-11.2a78.75,78.75,0,0,0-7.5,12c-3.22,1.08-6.08,3.48-10.31,3.15-5.6-.43-11.84-.86-17.22.22-2.7.54-5.89-2.65-10-4.71-3.36-6.84-6.37-11.85-6.37-11.85a38.53,38.53,0,0,0,1.31,11.53,29.81,29.81,0,0,1-6.52-5.51c-4.87-5.81-17.13-15.93-18.42-20.66s-7.95-41.55-7.95-41.55c.07.7,3.78,27.13,3.82,33.8s7.78,19.8,16.61,28.41S1242.82,717,1254.79,717s28.75-16.14,28.75-16.14,20.61-16.77,23-25.39C1306.57,675.51,1314.33,656,1309.55,630.75Z" transform="translate(65.99)"/>
			<polygon fill="4d4d66" points="1317.72 685.07 1318.55 689.65 1323.56 689.65 1324.6 685.07 1317.72 685.07"/>
			<path fill="fff" d="M1226.22,755.6l19.84,16.14L1243.51,782,1260,801.58,1270.14,782,1266,771.74l19.1-14.9L1283.47,742l15.66,10.79,3,8.44s65.84,38.28,67,38.61-22.8,82.34-25.62,82.38-179.65,0-179.65,0l-22.73-82.62,71.68-40.24,3.5-11.74,11.28-5.62Z" transform="translate(65.99)"/>
			<path fill="4d4d66" d="M1156.58,1125.75s4.7,208.41,10.72,281.33S1182.87,1765,1182.87,1765h71.45l13.25-495.25L1309.39,1765h65.93l-7.69-643.27Z" transform="translate(65.99)"/>
			<g opacity="0.39">
				<g clip-path="url(#clip-path-6)">
					<path fill="23232d" opacity="0.5" d="M1133.62,1198.1s66.51-24.37,125.85-38.16,150,6.58,150,6.58l-5.91-45.39-221.35-17.68-43.21,6.29Z" transform="translate(65.99)"/>
				</g>
			</g>
			<polygon fill="4d4d66" points="1451.32 788.82 1378.35 753.18 1325.97 851.7 1272.59 747.18 1199.61 787.82 1207.2 858.41 1227.61 983.24 1203.02 1154.95 1325.97 1132.24 1448.91 1154.95 1424.32 983.24 1444.73 858.41 1451.32 788.82"/>
			<g clip-path="url(#clip-path-7)">
				<path fill="23232d" opacity="0.2" d="M1269.09,937.19c-3.6.74-25.58,6.66-25.58,6.66l1.34,15.77,20,24.55s39.59,25.54,49.48,28.06c14,3.57,64,20,64,20V955.35Z" transform="translate(65.99)"/>
				<path fill="23232d" opacity="0.2" d="M1210.68,859.57c1,1.41,54.17,66.15,54.17,66.15l-54.17-59.09Z" transform="translate(65.99)"/>
				<polygon fill="23232d" opacity="0.2" points="1248.22 768.56 1264.13 836.1 1276.38 840.84 1260.35 840.84 1248.22 768.56"/>
			</g>
			<polygon fill="cdd5e8" points="1235.18 1133.13 1251.5 1147.95 1225.84 1181.13 1214.4 1144.13 1235.18 1133.13"/>
			<path fill="none" stroke="fff" stroke-miterlimit="10" stroke-width="2px" d="M1264.71,901.19s-4,21.2,5.85,42.81c8.08,17.81,4.51,44.43,8.52,60.29,3.07,12.16,3.07,30.75,3.07,30.75" transform="translate(65.99)"/>
			<path fill="cdd5e8" d="M1321.74,970.63l-11.23-30-30.76-28.19-34.9,1.34,1.61,10.6,8.61,5.35L1268.61,963s8,9.86,53.13,7.65" transform="translate(65.99)"/>
			<polygon fill="fff" points="1233.89 1127.03 1243.3 1138.98 1215.84 1159.94 1205.01 1145.79 1233.89 1127.03"/>
			<path fill="4d4d66" d="M1112.61,948.11s66-117.76,65.93-135-26.74-34.43-39.79-27.37-19.23,11.94-19.23,11.94l-86.9,178.9s-11.64,31.52-7.46,36.57,27.47,25.28,46.63,7.78c6-5.45,30.64-54.4,40.82-72.84" transform="translate(65.99)"/>
			<g clip-path="url(#clip-path-8)">
				<path fill="23232d" opacity="0.31" d="M1038,955.35s39.2,8.07,56.44,44.41l23-39-74.07-30.57Z" transform="translate(65.99)"/>
			</g>
			<polygon fill="fff" points="1390.79 937.19 1375.75 939.42 1381.33 973.51 1398.92 970.66 1390.79 937.19"/>
			<path fill="cdd5e8" d="M995.53,859.57c40.46,27.61,150.12,103.2,155.68,116.26,4.13,9.67-3,15-35,0C1084.58,961,938.23,896,993.93,861.46Z" transform="translate(65.99)"/>
			<path fill="4d4d66" d="M1383.46,787.63l138.63,142.61s20,25.2,17.63,31.31-15,22.24-40.91,23.09-171.53,4.25-173.71-1.24-7.17-48.92-7.17-48.92l119.27-6.2s-99.6-91.12-105-107.48,14.6-41.08,29.2-38.47S1383.46,787.63,1383.46,787.63Z" transform="translate(65.99)"/>
			<path fill="4d4d66" d="M1062.41,980.71c3.85,2.69,112,147.93,112,147.93l-40.19,22.49s-130.35-126.27-105.59-148.74C1051.26,981.83,1062.41,980.71,1062.41,980.71Z" transform="translate(65.99)"/>
			<path fill="e0e0e9" d="M1236.49,1769.31l-1.37-9.3-33.39,1.1s-14.12,38.77-41.75,60.81c-35.78-3.56-49.21,14-49.21,14s35.82,18.49,85.46-1.6c0,0,14.89-6,22.83-4.83l.31,9.33,24.4-.8S1255.63,1805.32,1236.49,1769.31Z" transform="translate(65.99)"/>
			<g clip-path="url(#clip-path-9)">
				<path fill="23232d" opacity="0.26" d="M1167,1785.73s45,18.61,100.65-31.2l-93.21-5.44Z" transform="translate(65.99)"/>
			</g>
			<path fill="e0e0e9" d="M1322.43,1769.31l1.37-9.3,33.39,1.1s14.12,38.77,41.74,60.81c35.78-3.56,49.21,14,49.21,14s-35.81,18.49-85.45-1.6c0,0-14.89-6-22.84-4.83l-.3,9.33-24.41-.8S1303.28,1805.32,1322.43,1769.31Z" transform="translate(65.99)"/>
			<g clip-path="url(#clip-path-10)">
				<path fill="23232d" opacity="0.26" d="M1301.55,1817.35a90.64,90.64,0,0,1,43.54-31.62c25.81-8.57,49.39-45,49.39-45L1285.42,1753Z" transform="translate(65.99)"/>
			</g>
			<path fill="ea493d" d="M1242.59,889.59c-2.13-4.08-11.69-11.39,1.14-18.08s11.93-5.53,27.08-2.24,18.32,15.47,16.43,23.19-12.22,11.16-24.58,8.73S1247.6,899.23,1242.59,889.59Z" transform="translate(65.99)"/>
			<path fill="fff" d="M1259.65,884.67s-10.93-2.84-2.9-7.3,17.7,2.72,16,4.91S1269.53,889.2,1259.65,884.67Z" transform="translate(65.99)"/>
			<line fill="none" stroke-miterlimit="10" stroke="bdbdd1" stroke-width="3px" x1="1423.24" y1="1781.87" x2="1436.89" y2="1777.16"/>
			<line fill="none" stroke-miterlimit="10" stroke="bdbdd1" stroke-width="3px" x1="1428.65" y1="1790.44" x2="1442.31" y2="1785.73"/>
			<line fill="none" stroke-miterlimit="10" stroke="bdbdd1" stroke-width="3px" x1="1433.18" y1="1799" x2="1446.84" y2="1794.29"/>
			<line fill="none" stroke-miterlimit="10" stroke="bdbdd1" stroke-width="3px" x1="1266.07" y1="1784.23" x2="1252.42" y2="1779.52"/>
			<line fill="none" stroke-miterlimit="10" stroke="bdbdd1" stroke-width="3px" x1="1260.66" y1="1792.79" x2="1247" y2="1788.08"/>
			<line fill="none" stroke-miterlimit="10" stroke="bdbdd1" stroke-width="3px" x1="1256.13" y1="1801.36" x2="1242.47" y2="1796.65"/>
			<path fill="e0e0e9" d="M1283.09,988.69s1.55-4.89,8.47-4.5C1291.56,984.19,1288.41,989.38,1283.09,988.69Z" transform="translate(65.99)"/>
			<path fill="e0e0e9" d="M1273.33,1003.18s-1.56-4.88-8.48-4.5C1264.85,998.68,1268,1003.87,1273.33,1003.18Z" transform="translate(65.99)"/>
			<path fill="e0e0e9" d="M1271.85,974.93s-1.55-4.89-8.47-4.5C1263.38,970.43,1266.53,975.62,1271.85,974.93Z" transform="translate(65.99)"/>
			<path fill="e0e0e9" d="M1285.42,1015.42s2.45-4.5,9.17-2.81C1294.59,1012.61,1290.51,1017.11,1285.42,1015.42Z" transform="translate(65.99)"/>
			<path fill="fff" opacity="0.66" d="M1227.12,2123.89l-2,4.56a1.74,1.74,0,0,1-2.48.76l-3.26-2a1.72,1.72,0,0,1-.57-2.38c1.24-1.93,3.82-4.83,7.51-3.2A1.71,1.71,0,0,1,1227.12,2123.89Z" transform="translate(65.99)"/>
			<path fill="fff" opacity="0.51" d="M1052.62,1902.88l-2,4.55a1.72,1.72,0,0,1-2.47.77l-3.27-2a1.72,1.72,0,0,1-.56-2.38c1.24-1.94,3.81-4.83,7.5-3.21A1.71,1.71,0,0,1,1052.62,1902.88Z" transform="translate(65.99)"/>
			<path fill="fff" d="M1079.89,1906.37l-2.29.91a.85.85,0,0,0-.43,1.21l.91,1.66a.87.87,0,0,0,1.17.33c1-.57,2.47-1.79,1.74-3.65A.84.84,0,0,0,1079.89,1906.37Z" transform="translate(65.99)"/>
			<path fill="fff" d="M478.15,1908.51l-2.29.91a.85.85,0,0,0-.43,1.21l.91,1.65a.86.86,0,0,0,1.17.34c1-.58,2.47-1.79,1.75-3.65A.86.86,0,0,0,478.15,1908.51Z" transform="translate(65.99)"/>
			<path fill="fff" d="M1465,2038.63l-2.3.91a.85.85,0,0,0-.43,1.21l.92,1.66a.85.85,0,0,0,1.16.33c1-.57,2.47-1.79,1.75-3.65A.85.85,0,0,0,1465,2038.63Z" transform="translate(65.99)"/>
			<path fill="fff" d="M760.08,2071.49l-2.3.91a.85.85,0,0,0-.43,1.21l.92,1.65a.84.84,0,0,0,1.16.33c1-.57,2.48-1.78,1.75-3.64A.85.85,0,0,0,760.08,2071.49Z" transform="translate(65.99)"/>
			<path fill="fff" opacity="0.39" d="M809.53,2015.1l4.08,9.11a3.46,3.46,0,0,0,4.95,1.53l6.53-4a3.45,3.45,0,0,0,1.13-4.77c-2.48-3.87-7.64-9.66-15-6.41A3.42,3.42,0,0,0,809.53,2015.1Z" transform="translate(65.99)"/>
			<path fill="fff" opacity="0.39" d="M1732.86,1913.74l-3.82-6.19a2.51,2.51,0,0,0-3.72-.63l-4.34,3.51a2.5,2.5,0,0,0-.36,3.55c2.16,2.56,6.44,6.26,11.47,3.2A2.49,2.49,0,0,0,1732.86,1913.74Z" transform="translate(65.99)"/>
			<path fill="fff" opacity="0.39" d="M447.76,1925.72l-3.83-6.19a2.51,2.51,0,0,0-3.72-.63l-4.34,3.51a2.5,2.5,0,0,0-.36,3.55c2.16,2.56,6.45,6.26,11.47,3.2A2.5,2.5,0,0,0,447.76,1925.72Z" transform="translate(65.99)"/>
			<path fill="fff" opacity="0.33" d="M1409.84,2009.3l-4.42,5a2.31,2.31,0,0,0,.44,3.44l4.25,2.88a2.3,2.3,0,0,0,3.22-.64c1.67-2.58,3.77-7.33-.26-10.93A2.3,2.3,0,0,0,1409.84,2009.3Z" transform="translate(65.99)"/>
			<path fill="677691" opacity="0.35" d="M1176.79,1911.89c-39.65.64-42.08-25.87-85.27-16.28-48.57,10.78-50.87,24.09-79.07,17.87" transform="translate(65.99)"/>
		</g>
	</g>
</svg>