<svg width="200" height="200" viewBox="0 0 200 200" fill="none" xmlns="http://www.w3.org/2000/svg">
<path d="M100 200C155.2 200 200 155.2 200 100C200 44.8 155.2 0 100 0C44.8 0 0 44.8 0 100C0 155.2 44.8 200 100 200ZM140.6 147.133V147.142C133.875 147.142 112.633 123.575 52.9333 135.808C51.3583 136.217 49.3 136.858 48.1333 136.858C40.5083 136.858 39.05 125.45 47.25 123.708C80.275 116.417 114.025 117.058 142.808 134.275C149.675 138.658 146.758 147.133 140.6 147.133V147.133ZM151.458 120.692C150.517 120.442 150.792 121.267 146.483 119C121.275 104.083 83.7083 98.0667 50.275 107.142C48.3417 107.667 47.2917 108.192 45.475 108.192C36.55 108.192 34.1833 94.7667 43.9083 92.025C83.2083 80.9833 125.367 87.425 154.717 104.883C157.983 106.817 159.275 109.325 159.275 112.825C159.233 117.175 155.85 120.692 151.458 120.692V120.692ZM37.9 58.3167C75.5917 47.2833 132.633 50.7667 168.1 71.4667C177.192 76.7083 173.617 89.9667 163.95 89.9667L163.942 89.9583C161.842 89.9583 160.55 89.4333 158.733 88.3833C130.042 71.25 78.7 67.1417 45.4833 76.4167C44.025 76.8167 42.2083 77.4583 40.275 77.4583C34.95 77.4583 30.8833 73.3 30.8833 67.9417C30.8833 62.4667 34.275 59.3667 37.9 58.3167V58.3167Z" fill="#BDBDD1"/>
</svg>
